<svg width="65" height="65" viewBox="0 0 65 65" fill="none" xmlns="http://www.w3.org/2000/svg">
<path d="M17.145 47.0807C17.145 48.566 18.3574 49.7784 19.8491 49.7784H22.9404V57.421C22.9404 59.357 24.4956 60.9376 26.4062 60.9376C28.3232 60.9376 29.8721 59.3634 29.8721 57.421V49.7721H35.2676V57.4146C35.2676 59.3507 36.8228 60.9312 38.7334 60.9312C40.6504 60.9312 42.1992 59.357 42.1992 57.4146V49.7721H45.2905C46.7822 49.7721 47.9946 48.5597 47.9946 47.0743V21.9884H17.145V47.0807ZM39.8125 8.98837L42.6626 4.86239C42.8276 4.62118 42.7896 4.29745 42.5674 4.13876C42.3452 3.98642 42.0278 4.06259 41.8628 4.3038L38.9048 8.59482C36.9561 7.82675 34.7852 7.40146 32.5063 7.40146C30.2275 7.40146 28.0566 7.82675 26.1079 8.59482L23.1499 4.31015C22.9849 4.06894 22.6675 3.98642 22.4453 4.14511C22.2231 4.29745 22.1851 4.61484 22.3501 4.86874L25.2002 8.99472C20.668 11.1021 17.4941 15.0948 17.0879 19.7603H47.9375C47.5186 15.0885 44.3384 11.0958 39.8125 8.98837ZM25.9937 15.4947C25.6559 15.4947 25.3258 15.3946 25.045 15.2069C24.7642 15.0193 24.5453 14.7526 24.4161 14.4406C24.2869 14.1286 24.2531 13.7853 24.3189 13.4541C24.3848 13.1229 24.5475 12.8186 24.7863 12.5798C25.0251 12.341 25.3293 12.1784 25.6605 12.1125C25.9918 12.0466 26.3351 12.0804 26.6471 12.2097C26.9591 12.3389 27.2258 12.5578 27.4134 12.8386C27.601 13.1194 27.7012 13.4495 27.7012 13.7872C27.7 14.2397 27.5197 14.6733 27.1998 14.9933C26.8798 15.3133 26.4462 15.4935 25.9937 15.4947ZM39.2222 15.4947C38.8845 15.4947 38.5543 15.3946 38.2735 15.2069C37.9927 15.0193 37.7739 14.7526 37.6446 14.4406C37.5154 14.1286 37.4816 13.7853 37.5475 13.4541C37.6133 13.1229 37.776 12.8186 38.0148 12.5798C38.2536 12.341 38.5578 12.1784 38.889 12.1125C39.2203 12.0466 39.5636 12.0804 39.8756 12.2097C40.1876 12.3389 40.4543 12.5578 40.6419 12.8386C40.8295 13.1194 40.9297 13.4495 40.9297 13.7872C40.9285 14.2397 40.7482 14.6733 40.4283 14.9933C40.1083 15.3133 39.6747 15.4935 39.2222 15.4947ZM53.4028 21.8868C51.4858 21.8868 49.937 23.461 49.937 25.4034V39.1397C49.937 41.0758 51.4922 42.6563 53.4028 42.6563C55.3198 42.6563 56.8687 41.0821 56.8687 39.1397V25.3971C56.875 23.4547 55.3262 21.8868 53.4028 21.8868ZM11.5972 21.8868C9.68018 21.8868 8.13135 23.461 8.13135 25.4034V39.1397C8.13135 41.0758 9.68652 42.6563 11.5972 42.6563C13.5142 42.6563 15.063 41.0821 15.063 39.1397V25.3971C15.063 23.4547 13.5078 21.8868 11.5972 21.8868Z" fill="#7CEF4D"/>
</svg>
