<svg width="65" height="65" viewBox="0 0 65 65" fill="none" xmlns="http://www.w3.org/2000/svg">
<path d="M5.66025 45.4999H10.1561V26.4332H5.66025V45.4999ZM7.90817 23.9415C8.2328 23.9487 8.55559 23.891 8.8576 23.7718C9.15962 23.6525 9.43476 23.4741 9.66687 23.247C9.89898 23.02 10.0834 22.7488 10.2093 22.4495C10.3351 22.1502 10.3999 21.8287 10.3998 21.504C10.3998 20.1499 9.3165 19.0665 7.90817 19.0665C7.58354 19.0593 7.26075 19.117 6.95874 19.2363C6.65672 19.3555 6.38159 19.5339 6.14947 19.761C5.91736 19.9881 5.73296 20.2592 5.60709 20.5585C5.48122 20.8579 5.41642 21.1793 5.4165 21.504C5.4165 22.8582 6.49984 23.9415 7.90817 23.9415ZM25.0519 19.1207C17.4957 19.1207 12.729 24.2665 12.729 32.4999C12.729 40.7874 17.4957 45.9332 25.0519 45.9332C32.6082 45.9332 37.3748 40.7874 37.3748 32.4999C37.3748 24.2665 32.6082 19.1207 25.0519 19.1207ZM25.0519 23.0207C29.6832 23.0207 32.6353 26.7311 32.6353 32.4999C32.6353 38.3228 29.6832 41.979 25.0519 41.979C20.4207 41.979 17.4957 38.3228 17.4957 32.4999C17.4957 26.7311 20.4207 23.0207 25.0519 23.0207ZM39.2707 38.2144C39.4603 42.9811 43.3332 45.9332 49.3457 45.9332C55.629 45.9332 59.5832 42.8457 59.5832 37.9165C59.5832 34.0436 57.3623 31.8769 52.0811 30.6582L49.1019 29.9811C45.9061 29.2228 44.6061 28.2207 44.6061 26.4874C44.6061 24.3749 46.5832 22.8853 49.5082 22.8853C52.4873 22.8853 54.5186 24.3749 54.7352 26.7853H59.1498C59.0415 22.2082 55.2769 19.1207 49.5353 19.1207C43.9019 19.1207 39.8936 22.2353 39.8936 26.8394C39.8936 30.5499 42.1415 32.8519 46.9353 33.9353L50.2936 34.7207C53.5707 35.5061 54.8978 36.5624 54.8978 38.4582C54.8978 40.6249 52.7311 42.1686 49.5894 42.1686C46.4478 42.1686 44.0373 40.6249 43.7665 38.2144H39.2707Z" fill="white"/>
</svg>
