<svg width="50" height="50" viewBox="0 0 50 50" fill="none" xmlns="http://www.w3.org/2000/svg">
<path d="M15.3644 34.9605L17.9686 31.7063L9.58525 25.0001L17.9686 18.2938L15.3644 15.0396L4.94775 23.373C4.70368 23.5682 4.50665 23.8157 4.37124 24.0974C4.23583 24.379 4.16553 24.6876 4.16553 25.0001C4.16553 25.3126 4.23583 25.6211 4.37124 25.9027C4.50665 26.1844 4.70368 26.432 4.94775 26.6271L15.3644 34.9605ZM34.6353 15.0396L32.0311 18.2938L40.4144 25.0001L32.0311 31.7063L34.6353 34.9605L45.0519 26.6271C45.296 26.432 45.493 26.1844 45.6284 25.9027C45.7638 25.6211 45.8341 25.3126 45.8341 25.0001C45.8341 24.6876 45.7638 24.379 45.6284 24.0974C45.493 23.8157 45.296 23.5682 45.0519 23.373L34.6353 15.0396ZM31.1998 6.70007L22.8665 44.2001L18.7978 43.2959L27.1311 5.7959L31.1998 6.70007Z" fill="white"/>
</svg>
