<svg width="45" height="54" viewBox="0 0 45 54" fill="none" xmlns="http://www.w3.org/2000/svg">
<path fill-rule="evenodd" clip-rule="evenodd" d="M24.4718 39.6952C18.4901 40.0007 12.5324 38.6736 7.12803 35.8317L8.22184 33.9204C13.3243 36.4262 18.8936 37.5616 24.4718 37.2334C24.4718 37.4423 24.703 33.3266 25.0383 31.0839H17.1689C17.7978 22.6028 20.1983 14.3969 24.1827 7.10791H0.595215V46.6754H25.376C24.9442 44.3715 24.6423 42.0403 24.4718 39.6952Z" fill="#C6E9FA"/>
<path fill-rule="evenodd" clip-rule="evenodd" d="M26.8465 37.0907C30.4821 36.841 34.0228 35.7097 37.2158 33.7777L38.5732 35.689C34.9521 37.8658 30.9575 39.1827 26.8465 39.5551C26.96 41.9663 27.3018 44.3579 27.8664 46.6908H44.8332V7.11816H26.7725C23.0104 13.5536 20.6604 20.8664 19.909 28.4769H28.0167C27.3388 31.2873 26.9464 34.172 26.8465 37.078V37.0907ZM11.3135 13.102H13.6144V18.9609H11.3135V13.102Z" fill="#00ADEE"/>
<path fill-rule="evenodd" clip-rule="evenodd" d="M30.4678 13.1016H32.7664V18.9605H30.4678V13.1016Z" fill="#231F20"/>
<path fill-rule="evenodd" clip-rule="evenodd" d="M26.8468 37.0905C30.4823 36.8408 34.023 35.7095 37.216 33.7775L38.5734 35.6888C34.9523 37.8656 30.9577 39.1825 26.8468 39.5549C27.0271 44.075 28.0954 48.4981 29.9779 52.5189L28.0169 53.6556C24.4348 47.4245 23.7943 39.0299 25.0384 31.094H17.1689C17.9856 19.7026 22.0156 8.87828 28.6944 0.137695L30.3918 1.75852C24.5065 9.27774 20.8487 18.6008 19.9093 28.4767H28.0169C27.3391 31.2871 26.9466 34.1718 26.8468 37.0778V37.0905Z" fill="#231F20"/>
<path fill-rule="evenodd" clip-rule="evenodd" d="M24.4717 37.2436V39.6952C18.49 40.0008 12.5323 38.6737 7.12793 35.8318L8.22174 33.9204C13.3242 36.4262 18.8935 37.5617 24.4717 37.2334V37.2436Z" fill="#00ADEE"/>
</svg>
