<svg width="50" height="50" viewBox="0 0 50 50" fill="none" xmlns="http://www.w3.org/2000/svg">
<path d="M20.9375 16.875L21.0417 19.2708L19.375 22.3958L16.7708 27.5L16.25 31.7708L18.125 37.8125L22.3958 40.2083H28.8542L34.8958 35.625L37.6042 28.4375L31.3542 20.8333L29.5833 16.5625L20.9375 16.875Z" fill="#ECEFF1"/>
<path d="M35.7293 22.8127C34.0626 20.4168 32.7084 18.9585 31.9793 15.9377C31.2501 12.9168 32.1876 13.7502 31.5626 11.146C31.2501 9.79184 30.7293 8.85434 30.2084 8.12517C29.5834 7.39601 28.8543 6.97934 28.4376 6.87517C27.5001 6.35434 25.3126 5.52101 22.6043 6.97934C19.7918 8.43767 20.1043 11.5627 20.6251 17.9168C20.6251 18.3335 20.5209 18.8543 20.3126 19.271C19.8959 20.2085 19.1668 21.0418 18.5418 21.771C17.8126 22.8127 17.0834 23.8543 16.5626 25.0002C15.3126 27.396 14.1668 30.4168 14.4793 31.5627C15.0001 31.4585 21.5626 41.4585 21.5626 41.6668C21.9793 41.5627 23.7501 41.5627 25.3126 41.5627C27.5001 41.4585 28.7501 41.3543 30.5209 41.771C30.5209 41.4585 30.4168 41.146 30.4168 40.8335C30.4168 40.2085 30.5209 39.6877 30.6251 38.9585C30.7293 38.4377 30.8334 37.9168 30.9376 37.2918C29.8959 38.2293 28.0209 39.271 26.2501 39.5835C24.6876 39.896 22.0834 39.3752 20.8334 37.8127C20.9376 37.8127 21.1459 37.8127 21.2501 37.7085C21.5626 37.6043 21.8751 37.5002 21.9793 37.2918C22.2918 36.771 22.0834 36.2502 21.8751 35.9377C21.6668 35.6252 20.1043 34.4793 19.3751 33.8543C18.6459 33.2293 18.2293 32.9168 17.8126 32.5002L16.9793 31.6668C16.7709 31.4585 16.6668 31.2502 16.5626 31.146C16.3543 30.6252 16.2501 30.0002 16.3543 29.1668C16.4584 28.021 16.8751 27.0835 17.3959 26.0418C17.6043 25.6252 18.1251 24.7918 18.1251 24.7918C18.1251 24.7918 16.3543 29.1668 17.2918 30.521C17.2918 30.521 17.3959 29.1668 17.8126 27.8127C18.1251 26.8752 18.6459 25.521 19.2709 24.7918C19.8959 24.0627 21.4584 21.3543 21.5626 19.6877C21.5626 18.9585 21.6668 18.2293 21.6668 17.7085C21.2501 17.2918 28.5418 16.2502 28.9584 17.396C29.0626 17.8127 30.5209 21.5627 31.3543 23.5418C31.7709 24.4793 32.2918 25.3127 32.6043 26.3543C32.9168 27.5002 33.1251 29.0627 33.1251 30.6252C33.1251 30.9377 33.1251 31.4585 33.0209 31.9793C33.2293 31.9793 37.2918 27.6043 32.5001 23.9585C32.5001 23.9585 35.4168 25.3127 35.5209 28.021C35.6251 30.2085 34.6876 31.9793 34.4793 32.2918C34.5834 32.2918 36.6668 33.2293 36.7709 33.2293C37.1876 33.2293 38.0209 32.9168 38.0209 32.9168C38.1251 32.6043 38.4376 31.771 38.4376 31.4585C39.1668 29.0627 37.3959 25.2085 35.7293 22.8127Z" fill="#263238"/>
<path d="M22.5002 15.9372C23.248 15.9372 23.8543 15.0044 23.8543 13.8538C23.8543 12.7032 23.248 11.7705 22.5002 11.7705C21.7523 11.7705 21.146 12.7032 21.146 13.8538C21.146 15.0044 21.7523 15.9372 22.5002 15.9372Z" fill="#ECEFF1"/>
<path d="M27.1878 16.1457C28.1658 16.1457 28.9587 15.073 28.9587 13.7498C28.9587 12.4267 28.1658 11.354 27.1878 11.354C26.2098 11.354 25.417 12.4267 25.417 13.7498C25.417 15.073 26.2098 16.1457 27.1878 16.1457Z" fill="#ECEFF1"/>
<path d="M23.2574 13.9964C23.1708 13.3115 22.7767 12.7972 22.3772 12.8477C21.9777 12.8982 21.724 13.4944 21.8105 14.1793C21.8971 14.8642 22.2912 15.3785 22.6907 15.328C23.0902 15.2775 23.3439 14.6813 23.2574 13.9964Z" fill="#212121"/>
<path d="M27.0837 15.5208C27.659 15.5208 28.1253 14.9146 28.1253 14.1667C28.1253 13.4188 27.659 12.8125 27.0837 12.8125C26.5084 12.8125 26.042 13.4188 26.042 14.1667C26.042 14.9146 26.5084 15.5208 27.0837 15.5208Z" fill="#212121"/>
<path d="M40.9377 37.0835C40.521 36.8752 39.7918 36.5627 39.1668 35.6252C38.8543 35.1043 38.9585 33.646 38.4377 33.021C38.1252 32.6043 37.7085 32.8127 37.6043 32.8127C36.6668 33.021 34.4793 34.4793 33.021 32.8127C32.8127 32.6043 32.5002 32.2918 31.9793 32.2918C31.4585 32.2918 31.2502 32.5002 31.0418 32.9168C30.8335 33.3335 30.8335 33.646 30.8335 34.6877C30.8335 35.521 30.8335 36.4585 30.7293 37.1877C30.521 38.9585 30.2085 40.0002 30.2085 41.0418C30.2085 42.1877 30.521 42.9168 30.9377 43.2293C31.2502 43.5418 31.771 43.7502 32.9168 43.7502C34.0627 43.7502 34.7918 43.3335 35.521 42.6043C36.0418 42.0835 36.4585 41.8752 37.9168 40.8335C39.0627 40.1043 40.8335 39.1668 41.146 38.8543C41.3543 38.646 41.6668 38.5418 41.6668 37.9168C41.6668 37.396 41.2502 37.1877 40.9377 37.0835ZM20.0002 37.396C18.9585 35.7293 18.8543 35.4168 18.1252 34.3752C17.5002 33.3335 16.146 31.3543 15.3127 31.3543C14.6877 31.3543 14.3752 31.6668 13.9585 32.0835C13.5418 32.5002 13.1252 33.4377 12.396 33.9585C11.771 34.4793 10.0002 34.3752 9.5835 35.0002C9.16683 35.6252 10.0002 36.5627 10.0002 38.1252C10.0002 38.7502 9.47933 39.1668 9.37516 39.5835C9.271 40.1043 9.16683 40.4168 9.37516 40.8335C9.79183 41.4585 10.3127 41.6668 13.8543 42.396C15.7293 42.8127 17.5002 43.8543 18.646 43.9585C19.7918 44.0627 21.771 43.9585 21.771 41.146C21.8752 39.4793 20.9377 39.0627 20.0002 37.396ZM21.9793 18.5418C21.3543 18.1252 20.8335 17.7085 20.8335 17.0835C20.8335 16.4585 21.2502 16.2502 21.8752 15.7293C21.9793 15.6252 23.1252 14.5835 24.271 14.5835C25.4168 14.5835 26.771 15.3127 27.2918 15.521C28.2293 15.7293 29.1668 15.9377 29.0627 16.6668C28.9585 17.7085 28.8543 17.9168 27.8127 18.4377C27.0835 18.646 25.7293 19.7918 24.7918 19.7918C24.3752 19.7918 23.7502 19.7918 23.3335 19.6877C23.021 19.5835 22.5002 19.0627 21.9793 18.5418Z" fill="#FFC107"/>
<path d="M21.7709 17.7083C21.9792 17.9167 22.2917 18.125 22.6042 18.2292C22.8125 18.3333 23.125 18.4375 23.125 18.4375H24.0625C24.5834 18.4375 25.3125 18.2292 26.0417 17.8125C26.7709 17.5 26.875 17.2917 27.3959 17.0833C27.9167 16.7708 28.4375 16.4583 28.2292 16.3542C28.0209 16.25 27.8125 16.3542 27.0834 16.7708C26.4584 17.1875 25.9375 17.3958 25.3125 17.7083C25 17.8125 24.5834 18.0208 24.2709 18.0208H23.3334C23.0209 18.0208 22.8125 17.9167 22.5 17.8125C22.2917 17.7083 22.1875 17.6042 22.0834 17.6042C21.875 17.5 21.4584 17.0833 21.25 16.9792C21.25 16.9792 21.0417 16.9792 21.1459 17.0833L21.7709 17.7083ZM24.8959 15.4167C25 15.625 25.2084 15.625 25.3125 15.7292C25.4167 15.8333 25.5209 15.8333 25.5209 15.8333C25.625 15.7292 25.5209 15.5208 25.4167 15.5208C25.4167 15.3125 24.8959 15.3125 24.8959 15.4167ZM23.2292 15.625C23.2292 15.7292 23.4375 15.8333 23.4375 15.7292C23.5417 15.625 23.6459 15.5208 23.75 15.5208C23.9584 15.4167 23.8542 15.3125 23.5417 15.3125C23.3334 15.4167 23.3334 15.5208 23.2292 15.625Z" fill="#634703"/>
<path d="M33.3332 34.0624V34.3749C33.5415 34.7916 34.0623 34.8958 34.479 34.8958C35.104 34.8958 35.729 34.4791 36.0415 34.0624C36.0415 33.9583 36.1457 33.8541 36.2498 33.7499C36.4582 33.4374 36.5623 33.2291 36.6665 33.1249C36.6665 33.1249 36.5623 33.0208 36.5623 32.9166C36.4582 32.7083 36.1457 32.4999 35.729 32.3958C35.4165 32.2916 34.8957 32.1874 34.6873 32.1874C33.7498 32.0833 33.229 32.3958 32.9165 32.7083C32.9165 32.7083 33.0207 32.7083 33.0207 32.8124C33.229 33.0208 33.3332 33.2291 33.3332 33.5416C33.4373 33.7499 33.3332 33.8541 33.3332 34.0624Z" fill="#455A64"/>
</svg>
