<svg width="457" height="107" viewBox="0 0 457 107" fill="none" xmlns="http://www.w3.org/2000/svg">
<path d="M98.6603 67.4999H103.156V48.4332H98.6603V67.4999ZM100.908 45.9415C101.233 45.9487 101.556 45.891 101.858 45.7718C102.16 45.6525 102.435 45.4741 102.667 45.247C102.899 45.02 103.083 44.7488 103.209 44.4495C103.335 44.1502 103.4 43.8287 103.4 43.504C103.4 42.1499 102.317 41.0665 100.908 41.0665C100.584 41.0593 100.261 41.117 99.9587 41.2363C99.6567 41.3555 99.3816 41.5339 99.1495 41.761C98.9174 41.9881 98.733 42.2592 98.6071 42.5585C98.4812 42.8579 98.4164 43.1793 98.4165 43.504C98.4165 44.8582 99.4998 45.9415 100.908 45.9415ZM118.052 41.1207C110.496 41.1207 105.729 46.2665 105.729 54.4999C105.729 62.7874 110.496 67.9332 118.052 67.9332C125.608 67.9332 130.375 62.7874 130.375 54.4999C130.375 46.2665 125.608 41.1207 118.052 41.1207ZM118.052 45.0207C122.683 45.0207 125.635 48.7311 125.635 54.4999C125.635 60.3228 122.683 63.979 118.052 63.979C113.421 63.979 110.496 60.3228 110.496 54.4999C110.496 48.7311 113.421 45.0207 118.052 45.0207ZM132.271 60.2144C132.46 64.9811 136.333 67.9332 142.346 67.9332C148.629 67.9332 152.583 64.8457 152.583 59.9165C152.583 56.0436 150.362 53.8769 145.081 52.6582L142.102 51.9811C138.906 51.2228 137.606 50.2207 137.606 48.4874C137.606 46.3749 139.583 44.8853 142.508 44.8853C145.487 44.8853 147.519 46.3749 147.735 48.7853H152.15C152.042 44.2082 148.277 41.1207 142.535 41.1207C136.902 41.1207 132.894 44.2353 132.894 48.8394C132.894 52.5499 135.142 54.8519 139.935 55.9353L143.294 56.7207C146.571 57.5061 147.898 58.5624 147.898 60.4582C147.898 62.6249 145.731 64.1686 142.589 64.1686C139.448 64.1686 137.037 62.6249 136.767 60.2144H132.271Z" fill="white"/>
<path d="M425.937 44.875L426.042 47.2708L424.375 50.3958L421.771 55.5L421.25 59.7708L423.125 65.8125L427.396 68.2083H433.854L439.896 63.625L442.604 56.4375L436.354 48.8333L434.583 44.5625L425.937 44.875Z" fill="#ECEFF1"/>
<path d="M440.729 50.8127C439.062 48.4168 437.708 46.9585 436.979 43.9377C436.25 40.9168 437.187 41.7502 436.562 39.146C436.25 37.7918 435.729 36.8543 435.208 36.1252C434.583 35.396 433.854 34.9793 433.437 34.8752C432.5 34.3543 430.312 33.521 427.604 34.9793C424.791 36.4377 425.104 39.5627 425.625 45.9168C425.625 46.3335 425.52 46.8543 425.312 47.271C424.895 48.2085 424.166 49.0418 423.541 49.771C422.812 50.8127 422.083 51.8543 421.562 53.0002C420.312 55.396 419.166 58.4168 419.479 59.5627C420 59.4585 426.562 69.4585 426.562 69.6668C426.979 69.5627 428.75 69.5627 430.312 69.5627C432.5 69.4585 433.75 69.3543 435.52 69.771C435.52 69.4585 435.416 69.146 435.416 68.8335C435.416 68.2085 435.52 67.6877 435.625 66.9585C435.729 66.4377 435.833 65.9168 435.937 65.2918C434.895 66.2293 433.02 67.271 431.25 67.5835C429.687 67.896 427.083 67.3752 425.833 65.8127C425.937 65.8127 426.145 65.8127 426.25 65.7085C426.562 65.6043 426.875 65.5002 426.979 65.2918C427.291 64.771 427.083 64.2502 426.875 63.9377C426.666 63.6252 425.104 62.4793 424.375 61.8543C423.645 61.2293 423.229 60.9168 422.812 60.5002L421.979 59.6668C421.77 59.4585 421.666 59.2502 421.562 59.146C421.354 58.6252 421.25 58.0002 421.354 57.1668C421.458 56.021 421.875 55.0835 422.395 54.0418C422.604 53.6252 423.125 52.7918 423.125 52.7918C423.125 52.7918 421.354 57.1668 422.291 58.521C422.291 58.521 422.395 57.1668 422.812 55.8127C423.125 54.8752 423.645 53.521 424.27 52.7918C424.895 52.0627 426.458 49.3543 426.562 47.6877C426.562 46.9585 426.666 46.2293 426.666 45.7085C426.25 45.2918 433.541 44.2502 433.958 45.396C434.062 45.8127 435.52 49.5627 436.354 51.5418C436.77 52.4793 437.291 53.3127 437.604 54.3543C437.916 55.5002 438.125 57.0627 438.125 58.6252C438.125 58.9377 438.125 59.4585 438.02 59.9793C438.229 59.9793 442.291 55.6043 437.5 51.9585C437.5 51.9585 440.416 53.3127 440.52 56.021C440.625 58.2085 439.687 59.9793 439.479 60.2918C439.583 60.2918 441.666 61.2293 441.77 61.2293C442.187 61.2293 443.02 60.9168 443.02 60.9168C443.125 60.6043 443.437 59.771 443.437 59.4585C444.166 57.0627 442.395 53.2085 440.729 50.8127V50.8127Z" fill="#263238"/>
<path d="M427.5 43.9372C428.248 43.9372 428.854 43.0044 428.854 41.8538C428.854 40.7032 428.248 39.7705 427.5 39.7705C426.752 39.7705 426.146 40.7032 426.146 41.8538C426.146 43.0044 426.752 43.9372 427.5 43.9372Z" fill="#ECEFF1"/>
<path d="M432.187 44.1457C433.165 44.1457 433.958 43.073 433.958 41.7498C433.958 40.4267 433.165 39.354 432.187 39.354C431.209 39.354 430.416 40.4267 430.416 41.7498C430.416 43.073 431.209 44.1457 432.187 44.1457Z" fill="#ECEFF1"/>
<path d="M428.257 41.9964C428.17 41.3115 427.776 40.7972 427.377 40.8477C426.977 40.8982 426.723 41.4944 426.81 42.1793C426.897 42.8642 427.291 43.3785 427.69 43.328C428.09 43.2775 428.343 42.6813 428.257 41.9964Z" fill="#212121"/>
<path d="M432.083 43.5208C432.658 43.5208 433.124 42.9146 433.124 42.1667C433.124 41.4188 432.658 40.8125 432.083 40.8125C431.507 40.8125 431.041 41.4188 431.041 42.1667C431.041 42.9146 431.507 43.5208 432.083 43.5208Z" fill="#212121"/>
<path d="M445.938 65.0835C445.521 64.8752 444.792 64.5627 444.167 63.6252C443.854 63.1043 443.958 61.646 443.438 61.021C443.125 60.6043 442.708 60.8127 442.604 60.8127C441.667 61.021 439.479 62.4793 438.021 60.8127C437.813 60.6043 437.5 60.2918 436.979 60.2918C436.458 60.2918 436.25 60.5002 436.042 60.9168C435.833 61.3335 435.833 61.646 435.833 62.6877C435.833 63.521 435.833 64.4585 435.729 65.1877C435.521 66.9585 435.208 68.0002 435.208 69.0418C435.208 70.1877 435.521 70.9168 435.938 71.2293C436.25 71.5418 436.771 71.7502 437.917 71.7502C439.063 71.7502 439.792 71.3335 440.521 70.6043C441.042 70.0835 441.458 69.8752 442.917 68.8335C444.063 68.1043 445.833 67.1668 446.146 66.8543C446.354 66.646 446.667 66.5418 446.667 65.9168C446.667 65.396 446.25 65.1877 445.938 65.0835V65.0835ZM425 65.396C423.958 63.7293 423.854 63.4168 423.125 62.3752C422.5 61.3335 421.146 59.3543 420.313 59.3543C419.688 59.3543 419.375 59.6668 418.958 60.0835C418.542 60.5002 418.125 61.4377 417.396 61.9585C416.771 62.4793 415 62.3752 414.583 63.0002C414.167 63.6252 415 64.5627 415 66.1252C415 66.7502 414.479 67.1668 414.375 67.5835C414.271 68.1043 414.167 68.4168 414.375 68.8335C414.792 69.4585 415.313 69.6668 418.854 70.396C420.729 70.8127 422.5 71.8543 423.646 71.9585C424.792 72.0627 426.771 71.9585 426.771 69.146C426.875 67.4793 425.938 67.0627 425 65.396V65.396ZM426.979 46.5418C426.354 46.1252 425.833 45.7085 425.833 45.0835C425.833 44.4585 426.25 44.2502 426.875 43.7293C426.979 43.6252 428.125 42.5835 429.271 42.5835C430.417 42.5835 431.771 43.3127 432.292 43.521C433.229 43.7293 434.167 43.9377 434.063 44.6668C433.958 45.7085 433.854 45.9168 432.813 46.4377C432.083 46.646 430.729 47.7918 429.792 47.7918C429.375 47.7918 428.75 47.7918 428.333 47.6877C428.021 47.5835 427.5 47.0627 426.979 46.5418Z" fill="#FFC107"/>
<path d="M426.77 45.7083C426.979 45.9167 427.291 46.125 427.604 46.2292C427.812 46.3333 428.125 46.4375 428.125 46.4375H429.062C429.583 46.4375 430.312 46.2292 431.041 45.8125C431.77 45.5 431.875 45.2917 432.395 45.0833C432.916 44.7708 433.437 44.4583 433.229 44.3542C433.02 44.25 432.812 44.3542 432.083 44.7708C431.458 45.1875 430.937 45.3958 430.312 45.7083C430 45.8125 429.583 46.0208 429.27 46.0208H428.333C428.02 46.0208 427.812 45.9167 427.5 45.8125C427.291 45.7083 427.187 45.6042 427.083 45.6042C426.875 45.5 426.458 45.0833 426.25 44.9792C426.25 44.9792 426.041 44.9792 426.145 45.0833L426.77 45.7083ZM429.895 43.4167C430 43.625 430.208 43.625 430.312 43.7292C430.416 43.8333 430.52 43.8333 430.52 43.8333C430.625 43.7292 430.52 43.5208 430.416 43.5208C430.416 43.3125 429.895 43.3125 429.895 43.4167V43.4167ZM428.229 43.625C428.229 43.7292 428.437 43.8333 428.437 43.7292C428.541 43.625 428.645 43.5208 428.75 43.5208C428.958 43.4167 428.854 43.3125 428.541 43.3125C428.333 43.4167 428.333 43.5208 428.229 43.625V43.625Z" fill="#634703"/>
<path d="M438.334 62.0624V62.3749C438.542 62.7916 439.063 62.8958 439.479 62.8958C440.104 62.8958 440.729 62.4791 441.042 62.0624C441.042 61.9583 441.146 61.8541 441.25 61.7499C441.459 61.4374 441.563 61.2291 441.667 61.1249C441.667 61.1249 441.563 61.0208 441.563 60.9166C441.459 60.7083 441.146 60.4999 440.729 60.3958C440.417 60.2916 439.896 60.1874 439.688 60.1874C438.75 60.0833 438.229 60.3958 437.917 60.7083C437.917 60.7083 438.021 60.7083 438.021 60.8124C438.229 61.0208 438.334 61.2291 438.334 61.5416C438.438 61.7499 438.334 61.8541 438.334 62.0624V62.0624Z" fill="#455A64"/>
<path d="M20.145 68.0807C20.145 69.566 21.3574 70.7784 22.8491 70.7784H25.9404V78.421C25.9404 80.357 27.4956 81.9376 29.4062 81.9376C31.3232 81.9376 32.8721 80.3634 32.8721 78.421V70.7721H38.2676V78.4146C38.2676 80.3507 39.8228 81.9312 41.7334 81.9312C43.6504 81.9312 45.1992 80.357 45.1992 78.4146V70.7721H48.2905C49.7822 70.7721 50.9946 69.5597 50.9946 68.0743V42.9884H20.145V68.0807V68.0807ZM42.8125 29.9884L45.6626 25.8624C45.8276 25.6212 45.7896 25.2975 45.5674 25.1388C45.3452 24.9864 45.0278 25.0626 44.8628 25.3038L41.9048 29.5948C39.9561 28.8267 37.7852 28.4015 35.5063 28.4015C33.2275 28.4015 31.0566 28.8267 29.1079 29.5948L26.1499 25.3101C25.9849 25.0689 25.6675 24.9864 25.4453 25.1451C25.2231 25.2975 25.1851 25.6148 25.3501 25.8687L28.2002 29.9947C23.668 32.1021 20.4941 36.0948 20.0879 40.7603H50.9375C50.5186 36.0885 47.3384 32.0958 42.8125 29.9884V29.9884ZM28.9937 36.4947C28.6559 36.4947 28.3258 36.3946 28.045 36.2069C27.7642 36.0193 27.5453 35.7526 27.4161 35.4406C27.2869 35.1286 27.2531 34.7853 27.3189 34.4541C27.3848 34.1229 27.5475 33.8186 27.7863 33.5798C28.0251 33.341 28.3293 33.1784 28.6605 33.1125C28.9918 33.0466 29.3351 33.0804 29.6471 33.2097C29.9591 33.3389 30.2258 33.5578 30.4134 33.8386C30.601 34.1194 30.7012 34.4495 30.7012 34.7872C30.7 35.2397 30.5197 35.6733 30.1998 35.9933C29.8798 36.3133 29.4462 36.4935 28.9937 36.4947V36.4947ZM42.2222 36.4947C41.8845 36.4947 41.5543 36.3946 41.2735 36.2069C40.9927 36.0193 40.7739 35.7526 40.6446 35.4406C40.5154 35.1286 40.4816 34.7853 40.5475 34.4541C40.6133 34.1229 40.776 33.8186 41.0148 33.5798C41.2536 33.341 41.5578 33.1784 41.889 33.1125C42.2203 33.0466 42.5636 33.0804 42.8756 33.2097C43.1876 33.3389 43.4543 33.5578 43.6419 33.8386C43.8295 34.1194 43.9297 34.4495 43.9297 34.7872C43.9285 35.2397 43.7482 35.6733 43.4283 35.9933C43.1083 36.3133 42.6747 36.4935 42.2222 36.4947ZM56.4028 42.8868C54.4858 42.8868 52.937 44.461 52.937 46.4034V60.1397C52.937 62.0758 54.4922 63.6563 56.4028 63.6563C58.3198 63.6563 59.8687 62.0821 59.8687 60.1397V46.3971C59.875 44.4547 58.3262 42.8868 56.4028 42.8868ZM14.5972 42.8868C12.6802 42.8868 11.1313 44.461 11.1313 46.4034V60.1397C11.1313 62.0758 12.6865 63.6563 14.5972 63.6563C16.5142 63.6563 18.063 62.0821 18.063 60.1397V46.3971C18.063 44.4547 16.5078 42.8868 14.5972 42.8868Z" fill="#7CEF4D"/>
<path fill-rule="evenodd" clip-rule="evenodd" d="M282.472 65.6952C276.491 66.0007 270.533 64.6736 265.129 61.8317L266.222 59.9204C271.325 62.4262 276.894 63.5616 282.472 63.2334C282.472 63.4423 282.704 59.3266 283.039 57.0839H275.169C275.798 48.6028 278.199 40.3969 282.183 33.1079H258.596V72.6754H283.376C282.945 70.3715 282.643 68.0403 282.472 65.6952V65.6952Z" fill="#C6E9FA"/>
<path fill-rule="evenodd" clip-rule="evenodd" d="M284.847 63.0907C288.482 62.841 292.023 61.7097 295.216 59.7777L296.573 61.689C292.952 63.8658 288.957 65.1827 284.847 65.5551C284.96 67.9663 285.302 70.3579 285.866 72.6908H302.833V33.1182H284.773C281.01 39.5536 278.66 46.8664 277.909 54.4769H286.017C285.339 57.2873 284.946 60.172 284.847 63.078V63.0907ZM269.313 39.102H271.614V44.9609H269.313V39.102Z" fill="#00ADEE"/>
<path fill-rule="evenodd" clip-rule="evenodd" d="M288.468 39.1016H290.766V44.9605H288.468V39.1016Z" fill="#231F20"/>
<path fill-rule="evenodd" clip-rule="evenodd" d="M284.847 63.0905C288.482 62.8408 292.023 61.7095 295.216 59.7775L296.573 61.6888C292.952 63.8656 288.958 65.1825 284.847 65.5549C285.027 70.075 286.095 74.4981 287.978 78.5189L286.017 79.6556C282.435 73.4245 281.794 65.0299 283.038 57.094H275.169C275.986 45.7026 280.016 34.8783 286.694 26.1377L288.392 27.7585C282.506 35.2777 278.849 44.6008 277.909 54.4767H286.017C285.339 57.2871 284.947 60.1718 284.847 63.0778V63.0905Z" fill="#231F20"/>
<path fill-rule="evenodd" clip-rule="evenodd" d="M282.472 63.2436V65.6952C276.49 66.0008 270.532 64.6737 265.128 61.8318L266.222 59.9204C271.324 62.4262 276.893 63.5617 282.472 63.2334V63.2436Z" fill="#00ADEE"/>
<path d="M357.381 32H337V52.3813H357.381V32Z" fill="#0078D4"/>
<path d="M380 32H359.619V52.3813H380V32Z" fill="#0078D4"/>
<path d="M357.381 54.6187H337V75H357.381V54.6187Z" fill="#0078D4"/>
<path d="M380 54.6187H359.619V75H380V54.6187Z" fill="#0078D4"/>
<path d="M193.364 62.9605L195.969 59.7063L187.585 53.0001L195.969 46.2938L193.364 43.0396L182.948 51.373C182.704 51.5682 182.507 51.8157 182.371 52.0974C182.236 52.379 182.166 52.6876 182.166 53.0001C182.166 53.3126 182.236 53.6211 182.371 53.9027C182.507 54.1844 182.704 54.432 182.948 54.6271L193.364 62.9605ZM212.635 43.0396L210.031 46.2938L218.414 53.0001L210.031 59.7063L212.635 62.9605L223.052 54.6271C223.296 54.432 223.493 54.1844 223.628 53.9027C223.764 53.6211 223.834 53.3126 223.834 53.0001C223.834 52.6876 223.764 52.379 223.628 52.0974C223.493 51.8157 223.296 51.5682 223.052 51.373L212.635 43.0396ZM209.2 34.7001L200.867 72.2001L196.798 71.2959L205.131 33.7959L209.2 34.7001Z" fill="white"/>
</svg>
